<svg xmlns="http://www.w3.org/2000/svg" id="filled_outline" data-name="filled outline" viewBox="0 0 512 512"><circle cx="256" cy="256" r="160" fill="#ffc431"/><path fill="#ef5e3b" d="M264,112l8-56,12.68629-12.68629a11.31372,11.31372,0,0,0,3.31371-8h0A11.31369,11.31369,0,0,0,276.6863,24H235.3137A11.31369,11.31369,0,0,0,224,35.3137h0a11.31372,11.31372,0,0,0,3.31371,8L240,56l8,56Z"/><circle cx="176.402" cy="63.833" r="16" fill="#ffc431"/><path fill="#ef5e3b" d="M159.83348,148.51977l-33.94113-45.25483V85.32381a11.31371,11.31371,0,0,0-3.3137-8h0a11.31371,11.31371,0,0,0-16,0L77.3238,106.57865a11.31371,11.31371,0,0,0,0,16h0a11.31371,11.31371,0,0,0,8,3.3137h17.94113l45.25483,33.94113Z"/><circle cx="63.833" cy="176.402" r="16" fill="#ffc431"/><path fill="#ef5e3b" d="M112,248l-56-8L43.31371,227.31371a11.31372,11.31372,0,0,0-8-3.31371h0A11.31369,11.31369,0,0,0,24,235.3137v41.3726A11.31369,11.31369,0,0,0,35.3137,288h0a11.31372,11.31372,0,0,0,8-3.31371L56,272l56-8Z"/><circle cx="63.833" cy="335.598" r="16" fill="#ffc431"/><path fill="#ef5e3b" d="M148.51977,352.16652l-45.25483,33.94113H85.32381a11.31371,11.31371,0,0,0-8,3.3137h0a11.31371,11.31371,0,0,0,0,16l29.25485,29.25485a11.31371,11.31371,0,0,0,16,0h0a11.31371,11.31371,0,0,0,3.3137-8V408.73506l33.94113-45.25483Z"/><circle cx="176.402" cy="448.167" r="16" fill="#ffc431"/><path fill="#ef5e3b" d="M248,400l-8,56-12.68629,12.68629a11.31372,11.31372,0,0,0-3.31371,8h0A11.31369,11.31369,0,0,0,235.3137,488h41.3726A11.31369,11.31369,0,0,0,288,476.6863h0a11.31372,11.31372,0,0,0-3.31371-8L272,456l-8-56Z"/><circle cx="335.598" cy="448.167" r="16" fill="#ffc431"/><path fill="#ef5e3b" d="M352.16652,363.48023l33.94113,45.25483v17.94113a11.31371,11.31371,0,0,0,3.3137,8h0a11.31371,11.31371,0,0,0,16,0l29.25485-29.25485a11.31371,11.31371,0,0,0,0-16h0a11.31371,11.31371,0,0,0-8-3.3137H408.73506l-45.25483-33.94113Z"/><circle cx="448.167" cy="335.598" r="16" fill="#ffc431"/><path fill="#ef5e3b" d="M400,264l56,8,12.68629,12.68629a11.31372,11.31372,0,0,0,8,3.31371h0A11.31369,11.31369,0,0,0,488,276.6863V235.3137A11.31369,11.31369,0,0,0,476.6863,224h0a11.31372,11.31372,0,0,0-8,3.31371L456,240l-56,8Z"/><circle cx="448.167" cy="176.402" r="16" fill="#ffc431"/><path fill="#ef5e3b" d="M363.48023,159.83348l45.25483-33.94113h17.94113a11.31371,11.31371,0,0,0,8-3.3137h0a11.31371,11.31371,0,0,0,0-16L405.42135,77.3238a11.31371,11.31371,0,0,0-16,0h0a11.31371,11.31371,0,0,0-3.3137,8v17.94113l-33.94113,45.25483Z"/><circle cx="335.598" cy="63.833" r="16" fill="#ffc431"/><path d="M476.68652,216a19.18535,19.18535,0,0,0-13.65673,5.65674L452.229,232.45752l-29.33679,4.191q-.58209-5.11413-1.4657-10.14771l13.73609-3.13073-3.55567-15.59961-13.691,3.12042q-1.64594-5.95487-3.73156-11.75378l16.15356-6.691a24.11744,24.11744,0,0,0,17.86084,7.95569,23.87051,23.87051,0,0,0,9.15234-1.82666h.00049a24.00028,24.00028,0,1,0-33.14782-20.90662l-16.14539,6.68756q-2.631-5.56778-5.67517-10.94757l11.89307-7.478-8.51636-13.54486-11.93408,7.50385q-2.9328-4.18241-6.13721-8.21241l23.71277-17.78454h15.2749a19.31372,19.31372,0,0,0,13.65674-32.9707L411.07812,71.6665a19.31421,19.31421,0,0,0-32.9707,13.65723v15.2749L360.327,124.30585q-4.02777-3.20463-8.212-6.13892l7.49927-11.92682-13.5448-8.51636-7.47461,11.88764q-5.37469-3.04687-10.94983-5.67261l6.6853-16.13983c.4126.02142.82483.03406,1.23609.03406a24.0394,24.0394,0,0,0,22.20507-14.81543v-.00049A24.00009,24.00009,0,1,0,319.54932,81.673l-6.68775,16.14569q-5.79748-2.07658-11.7539-3.72821l3.12182-13.69738L288.62988,76.8374,285.49731,90.582q-5.03136-.88358-10.14685-1.46741l4.192-29.34362,10.80078-10.80079A19.31354,19.31354,0,0,0,276.68652,16h-41.373a19.31354,19.31354,0,0,0-13.65674,32.97021L232.45752,59.771l4.191,29.33679q-5.11413.582-10.14771,1.46576L223.37012,76.8374l-15.59961,3.55567,3.12042,13.691q-5.95487,1.64593-11.75378,3.7315l-6.68641-16.14245a24.03921,24.03921,0,0,0,6.12446-27.02423v-.00049A24.00028,24.00028,0,1,0,176.43359,87.833c.41126,0,.82343-.01264,1.23609-.03406l6.68646,16.1427q-5.56769,2.631-10.94757,5.67517l-7.478-11.89307-13.5448,8.51636,7.50385,11.93408q-4.18231,2.9329-8.21247,6.13721l-17.78454-23.71277V85.32373A19.31372,19.31372,0,0,0,100.92188,71.667L71.6665,100.92188a19.31421,19.31421,0,0,0,13.65723,32.9707h15.2749L124.30585,151.673q-3.20463,4.02768-6.13892,8.212l-11.92682-7.49927-8.51636,13.54486,11.88764,7.47461q-3.04687,5.37461-5.67261,10.94977l-16.14252-6.68634a24.03864,24.03864,0,0,0-14.77868-23.44006h-.00049a24.00454,24.00454,0,1,0,8.64441,38.2174l16.15716,6.69245q-2.07658,5.79748-3.72821,11.754l-13.69738-3.12189L76.8374,223.37012,90.582,226.50275q-.88358,5.03118-1.46741,10.14679l-29.34362-4.192L48.97021,221.65674A19.31354,19.31354,0,0,0,16,235.31348v41.373a19.31354,19.31354,0,0,0,32.97021,13.65674L59.771,279.54248l29.33679-4.191q.582,5.11413,1.46576,10.14771L76.8374,288.62988l3.55567,15.59961,13.691-3.12036q1.64593,5.95477,3.7315,11.75366L81.6731,319.54932a24.03908,24.03908,0,0,0-27.02417-6.12452h-.00049a24.00028,24.00028,0,1,0,33.14782,20.90662l16.14539-6.68762q2.631,5.56786,5.67517,10.94763l-11.89307,7.478,8.51636,13.5448,11.93408-7.50391q2.9329,4.1825,6.13721,8.21253l-23.71277,17.78454H85.32373A19.31372,19.31372,0,0,0,71.667,411.07812l29.25489,29.25538a19.31421,19.31421,0,0,0,32.9707-13.65723v-15.2749L151.673,387.69409q4.02768,3.20472,8.212,6.13892l-7.49927,11.92688,13.5448,8.51636,7.47461-11.88758q5.37461,3.04688,10.94977,5.67261l-6.6864,16.14258a24.0379,24.0379,0,0,0-23.44,14.77856v.00049a24.00009,24.00009,0,1,0,38.22216-8.65588l6.68769-16.14563q5.79748,2.07641,11.754,3.72815l-3.12189,13.69738,15.59961,3.55567,3.13263-13.74463q5.03118.88366,10.14679,1.46741l-4.192,29.34362-10.80078,10.80079A19.31354,19.31354,0,0,0,235.31348,496h41.373a19.31354,19.31354,0,0,0,13.65674-32.97021L279.54248,452.229l-4.191-29.33679q5.11413-.58209,10.14771-1.4657l3.13073,13.73609,15.59961-3.55567-3.12036-13.691q5.95477-1.64594,11.75366-3.73156l6.68653,16.14257a24.0389,24.0389,0,0,0-6.12452,27.02417v.00049a24.00028,24.00028,0,1,0,20.90674-33.14746l-6.68774-16.14575q5.56786-2.631,10.94763-5.67517l7.478,11.89307,13.5448-8.51636-7.50391-11.93408q4.1825-2.9328,8.21253-6.13721l17.78454,23.71277v15.2749a19.32046,19.32046,0,0,0,32.9707,13.65674l29.25538-29.25489a19.31421,19.31421,0,0,0-13.65723-32.9707h-15.2749L387.69409,360.327q3.20472-4.02777,6.13892-8.212l11.92688,7.49927,8.51636-13.5448-11.88758-7.47461q3.04688-5.37469,5.67261-10.94983l16.14246,6.6864a24.03873,24.03873,0,0,0,14.77868,23.44006h.00049a24.00009,24.00009,0,1,0-8.65552-38.222l-16.146-6.68787q2.07641-5.79748,3.72815-11.7539l13.69738,3.12182,3.55567-15.59961L421.418,285.49731q.88366-5.03136,1.46741-10.14685l29.34362,4.192,10.80079,10.80078A19.31354,19.31354,0,0,0,496,276.68652v-41.373A19.33544,19.33544,0,0,0,476.68652,216ZM445.105,169.01074a8.00019,8.00019,0,1,1-4.3291,10.45313A7.963,7.963,0,0,1,445.105,169.01074ZM328.207,60.77148a8.00009,8.00009,0,1,1,4.32959,10.45264A8.01319,8.01319,0,0,1,328.207,60.77148ZM169.01074,66.895a8.00019,8.00019,0,1,1,10.45313,4.3291A8.01012,8.01012,0,0,1,169.01074,66.895ZM71.22412,179.46338a7.99989,7.99989,0,1,1-4.32959-10.45264A8.00783,8.00783,0,0,1,71.22412,179.46338ZM66.895,342.98926a8.00019,8.00019,0,1,1,4.3291-10.45313A8.01054,8.01054,0,0,1,66.895,342.98926ZM183.793,451.22852a8.00009,8.00009,0,1,1-4.32959-10.45264A8.00817,8.00817,0,0,1,183.793,451.22852ZM342.98926,445.105a8.00019,8.00019,0,1,1-10.45313-4.3291A8.01012,8.01012,0,0,1,342.98926,445.105Zm97.78662-112.56836a8.00009,8.00009,0,1,1,4.32959,10.45264A8.00666,8.00666,0,0,1,440.77588,332.53662ZM392.50732,108.06494a7.9995,7.9995,0,0,0,1.6001-4.7998V85.32373a3.31421,3.31421,0,0,1,5.65723-2.34326L429.019,112.23535a3.31372,3.31372,0,0,1-2.34277,5.65723H408.73486a7.9995,7.9995,0,0,0-4.7998,1.6001L364.231,149.27051l-1.50147-1.50147ZM232,35.31348A3.31712,3.31712,0,0,1,235.31348,32h41.373a3.31388,3.31388,0,0,1,2.34327,5.65674L266.34326,50.34326a7.99725,7.99725,0,0,0-2.26269,4.52539L257.06152,104h-2.123l-7.019-49.13135a7.99725,7.99725,0,0,0-2.26269-4.52539L232.97021,37.65674A3.29355,3.29355,0,0,1,232,35.31348Zm-128.73486,82.5791H85.32373a3.31421,3.31421,0,0,1-2.34326-5.65723L112.23535,82.981a3.31779,3.31779,0,0,1,4.68653-.00049,3.3387,3.3387,0,0,1,.9707,2.34326v17.94141a7.9995,7.9995,0,0,0,1.6001,4.7998l29.77783,39.7041-1.50147,1.50147-39.7041-29.77783A7.9995,7.9995,0,0,0,103.26514,117.89258Zm-48.39649,146.188a7.99725,7.99725,0,0,0-4.52539,2.26269L37.65674,279.02979A3.31388,3.31388,0,0,1,32,276.68652v-41.373a3.31388,3.31388,0,0,1,5.65674-2.34327l12.68652,12.68653a7.99725,7.99725,0,0,0,4.52539,2.26269L104,254.93848v2.123Zm64.624,139.85449a7.9995,7.9995,0,0,0-1.6001,4.7998v17.94141a3.31421,3.31421,0,0,1-5.65723,2.34326L82.981,399.76465a3.31372,3.31372,0,0,1,2.34277-5.65723h17.94141a7.9995,7.9995,0,0,0,4.7998-1.6001l39.7041-29.77783,1.50147,1.50147ZM280,476.68652A3.31712,3.31712,0,0,1,276.68652,480h-41.373a3.31388,3.31388,0,0,1-2.34327-5.65674l12.68653-12.68652a7.99725,7.99725,0,0,0,2.26269-4.52539L254.93848,408h2.123l7.01905,49.13135a7.99725,7.99725,0,0,0,2.26269,4.52539l12.68653,12.68652A3.29355,3.29355,0,0,1,280,476.68652Zm128.73486-82.5791h17.94141a3.31421,3.31421,0,0,1,2.34326,5.65723L399.76465,429.019a3.31372,3.31372,0,0,1-5.65723-2.34277V408.73486a7.9995,7.9995,0,0,0-1.6001-4.7998L362.72949,364.231l1.50147-1.50147,39.7041,29.77783A7.9995,7.9995,0,0,0,408.73486,394.10742Zm-2.937-112.17029-26.90051-6.1311a7.99983,7.99983,0,1,0-3.55542,15.59961l26.93933,6.14q-1.30774,4.6441-2.90808,9.18226l-7.27307-3.01258-6.123,14.78223,7.27612,3.01391q-2.07641,4.3407-4.43383,8.55127L365.4231,315.35181a8.00005,8.00005,0,0,0-11.03077,2.51416v.00012a8,8,0,0,0,2.51416,11.03052l23.36438,14.69079q-2.57574,3.63374-5.38134,7.13611l-6.60926-4.95691a7.99931,7.99931,0,0,0-10.45654.74317l-11.314,11.314a7.99932,7.99932,0,0,0-.74317,10.45654l4.95264,6.60352q-3.50391,2.80188-7.13648,5.37964l-14.68615-23.35694a7.99991,7.99991,0,0,0-13.5448,8.51661l14.70752,23.39062q-4.20869,2.35912-8.54908,4.43652l-3.01269-7.27319-14.78223,6.123,3.01392,7.27612q-4.5379,1.60127-9.18213,2.91162l-6.14136-26.94592a7.99988,7.99988,0,0,0-15.59973,3.55542l6.13306,26.90918q-4.3907.748-8.8512,1.24084l-1.16846-8.17871A7.99982,7.99982,0,0,0,264,392H248a7.99982,7.99982,0,0,0-7.91943,6.86865l-1.16742,8.17163q-4.4589-.4964-8.85028-1.24243l6.1311-26.90051a7.99985,7.99985,0,1,0-15.59967-3.55542l-6.13995,26.93933q-4.6442-1.30774-9.18226-2.90808l3.01258-7.27307-14.78223-6.123-3.01385,7.27612q-4.34088-2.07641-8.5514-4.43383l14.71094-23.39624a7.99988,7.99988,0,0,0-13.54474-8.51661l-14.69085,23.36438q-3.63365-2.57574-7.13605-5.38134l4.95691-6.60926a7.99932,7.99932,0,0,0-.74317-10.45654l-11.314-11.314a7.9977,7.9977,0,0,0-10.45654-.74317l-6.60352,4.95264q-2.802-3.50391-5.37958-7.13648l23.35681-14.68615a7.99987,7.99987,0,0,0,2.51416-11.03052V317.866a7.99994,7.99994,0,0,0-11.0307-2.51416l-23.39056,14.70752q-2.35922-4.20869-4.43658-8.54908l7.27319-3.01269-6.123-14.78223-7.27618,3.01392q-1.60118-4.5379-2.9115-9.18213l26.94586-6.14148a7.99983,7.99983,0,1,0-3.55542-15.59961l-26.90918,6.13306q-.74808-4.3907-1.24078-8.8512l8.17865-1.16846A7.99982,7.99982,0,0,0,120,264V248a7.99982,7.99982,0,0,0-6.86865-7.91943l-8.17157-1.16742q.49631-4.4589,1.24231-8.85028l26.90057,6.1311a7.99988,7.99988,0,0,0,9.57752-6.022v-.00006a7.99988,7.99988,0,0,0-6.0221-9.57764l-26.93927-6.13995q1.30765-4.6442,2.908-9.18226l7.27307,3.01258,6.123-14.78223-7.27618-3.01385q2.0765-4.34088,4.434-8.5514l23.39617,14.71088a7.99984,7.99984,0,1,0,8.51654-13.54468l-23.36431-14.69085q2.57574-3.63365,5.38134-7.13605l6.60926,4.95691a7.99923,7.99923,0,0,0,10.45654-.74317l11.314-11.314a7.99932,7.99932,0,0,0,.74317-10.45654l-4.95264-6.60352q3.50382-2.802,7.13648-5.37958l14.68615,23.35681a7.99987,7.99987,0,0,0,13.54474-8.51654l-14.7074-23.39056q4.2086-2.35922,8.54908-4.43658l3.01263,7.27319,14.78223-6.123-3.01386-7.27618q4.53781-1.60118,9.18207-2.9115l6.14142,26.94586A7.99986,7.99986,0,0,0,236.194,133.1026l-6.13306-26.90912q4.39078-.74808,8.85126-1.24078l1.1684,8.17865A7.99982,7.99982,0,0,0,248,120h16a7.99982,7.99982,0,0,0,7.91943-6.86865l1.16748-8.17157q4.45881.49631,8.85022,1.24231L275.806,133.1026a7.99989,7.99989,0,0,0,15.59973,3.55548l6.13989-26.93927q4.6443,1.30765,9.18226,2.908l-3.01258,7.27307,14.78223,6.123,3.01391-7.27618q4.3407,2.0765,8.55127,4.434L315.35181,146.5769a7.99989,7.99989,0,0,0,13.5448,8.51654l14.69079-23.36431q3.63374,2.57574,7.13611,5.38134l-4.95691,6.60926a7.99932,7.99932,0,0,0,.74317,10.45654l11.314,11.314a7.99923,7.99923,0,0,0,10.45654.74317l6.60352-4.95264q2.80188,3.50382,5.37964,7.13648l-23.35694,14.68615a7.99986,7.99986,0,1,0,8.51661,13.54468l23.39062-14.70734q2.35912,4.2086,4.43652,8.54908l-7.27319,3.01263,6.123,14.78223,7.27612-3.01386q1.60127,4.53781,2.91162,9.18207l-26.94592,6.14142a7.99983,7.99983,0,0,0-6.0221,9.57764v.00006a7.99988,7.99988,0,0,0,9.57752,6.022l26.90918-6.13306q.748,4.39078,1.24084,8.85126l-8.17871,1.1684A7.99982,7.99982,0,0,0,392,248v16a7.99982,7.99982,0,0,0,6.86865,7.91943l8.17163,1.16748Q406.54388,277.54572,405.79785,281.93713ZM480,276.68652a3.31388,3.31388,0,0,1-5.65674,2.34327l-12.68652-12.68653a7.99725,7.99725,0,0,0-4.52539-2.26269L408,257.06152v-2.123l49.13135-7.019a7.99725,7.99725,0,0,0,4.52539-2.26269l12.68652-12.68653A3.31388,3.31388,0,0,1,480,235.31348Z"/><path d="M341.03027,233.212a51.409,51.409,0,0,0,9.25244-10.31989c5.48-8.2998,6.44288-16.42969,2.71192-22.8916-3.731-6.4624-11.25488-9.6958-21.18115-9.09766a51.417,51.417,0,0,0-13.57215,2.85584,51.41647,51.41647,0,0,0,2.85584-13.57215c.59619-9.92822-2.63477-17.45019-9.09717-21.18115-6.46143-3.73047-14.59229-2.76855-22.89209,2.71192a51.40864,51.40864,0,0,0-10.31982,9.25244C275.68823,154.957,266.91858,144,256,144s-19.68823,10.957-22.788,26.96973a51.41083,51.41083,0,0,0-10.31989-9.25244c-8.30078-5.48047-16.43164-6.44336-22.8916-2.71192-6.46289,3.731-9.69385,11.25293-9.09766,21.18115a51.41647,51.41647,0,0,0,2.85584,13.57215,51.41647,51.41647,0,0,0-13.57215-2.85584c-9.92822-.6001-17.45019,2.63428-21.18115,9.09717-3.731,6.4624-2.76807,14.59229,2.71192,22.89209a51.41083,51.41083,0,0,0,9.25244,10.31989C154.957,236.31177,144,245.08142,144,256s10.957,19.68823,26.96973,22.78809a51.40864,51.40864,0,0,0-9.25244,10.31982c-5.48,8.2998-6.44288,16.42969-2.71192,22.8916,3.43848,5.95654,10.09717,9.16748,18.89258,9.16748q1.12134,0,2.28857-.06982a51.41647,51.41647,0,0,0,13.57215-2.85584,51.417,51.417,0,0,0-2.85584,13.57215c-.59619,9.92822,2.63477,17.45019,9.09717,21.18115a16.72248,16.72248,0,0,0,8.46973,2.23535c4.53125,0,9.44629-1.66162,14.42236-4.94727a51.409,51.409,0,0,0,10.31989-9.25244C236.31177,357.043,245.08142,368,256,368s19.68823-10.957,22.78809-26.96973a51.40681,51.40681,0,0,0,10.31982,9.25244c4.97656,3.28565,9.89111,4.94727,14.42236,4.94727a16.7194,16.7194,0,0,0,8.46924-2.23535c6.46289-3.731,9.69385-11.25293,9.09766-21.18115-.47754-7.96094-3.42969-17.00244-8.3125-25.45948-1.12915-1.95556-2.33985-3.83349-3.61182-5.62548a27.59222,27.59222,0,0,1,7.24951,2.42675l16,8,7.15528-14.31054-16-8a43.99469,43.99469,0,0,0-30.10718-3.31153c-7.8031-4.67968-15.37842-5.33935-21.47-1.82031a16.88054,16.88054,0,0,0-6.6897,7.19653,16.35309,16.35309,0,0,0-18.62146-.00012,16.71822,16.71822,0,0,0-16.20209-9.39685,16.71715,16.71715,0,0,0-9.39679-16.20141,16.35311,16.35311,0,0,0,.00043-18.6214,16.71782,16.71782,0,0,0,9.39533-16.21454c.34881.01922.69958.04736,1.04406.04736a16.70386,16.70386,0,0,0,15.159-9.43182,16.35314,16.35314,0,0,0,18.6214.00006,16.70276,16.70276,0,0,0,15.15906,9.43176c.34448,0,.69531-.02808,1.04406-.0473a16.71922,16.71922,0,0,0,9.39527,16.21454A16.68647,16.68647,0,0,0,288,256c0,13.68213,17.19629,24,40,24s40-10.31787,40-24C368,245.08142,357.043,236.31177,341.03027,233.212Zm-8.25781-26.338c.47656-.02881.92188-.0415,1.33692-.0415,3.5581,0,4.90478.95264,5.0288,1.16748.13868.23975.31153,2.26074-2.20752,6.07666-3.0083,4.55566-8.32128,9.23975-14.57666,12.85156-6.25586,3.61182-12.96923,5.87061-18.41845,6.19776-4.5669.27881-6.22754-.88575-6.36621-1.126-.13868-.23975-.31153-2.26074,2.20752-6.07666,3.0083-4.55566,8.32128-9.23975,14.57714-12.85156S327.32275,207.20117,332.77246,206.874Zm-159.91064,1.12549c.124-.21435,1.47021-1.167,5.0288-1.167.41456,0,.86036.01269,1.33692.0415,5.44971.32715,12.1626,2.58594,18.41846,6.19776s11.56884,8.2959,14.57714,12.85156c2.519,3.81592,2.3462,5.83691,2.20752,6.07715-.13867.23926-1.79882,1.40185-6.36621,1.12549-5.44922-.32715-12.16259-2.58594-18.41845-6.19776-6.25538-3.61181-11.56836-8.2959-14.57666-12.85156C172.55029,210.26074,172.72314,208.23975,172.86182,207.99951ZM160,256c0-1.99121,8.51172-8,24-8s24,6.00879,24,8-8.51172,8-24,8S160,257.99121,160,256Zm19.22754,49.126c-4.55957.27685-6.227-.88575-6.36572-1.126-.13868-.23975-.31153-2.26074,2.20752-6.07666,3.0083-4.55566,8.32128-9.23975,14.57666-12.85156,6.25586-3.61182,12.96923-5.87061,18.41845-6.19776,4.56787-.27343,6.228.88672,6.36621,1.126.13868.23975.31153,2.26074-2.20752,6.07666-3.0083,4.55566-8.32128,9.23975-14.57714,12.85156S184.67725,304.79883,179.22754,305.126ZM280,297.56934c.23828-.13868,2.25879-.313,6.07666,2.20752,4.55566,3.0083,9.23975,8.32128,12.85156,14.57714s5.87061,12.96875,6.19776,18.41846c.27392,4.564-.88575,6.227-1.126,6.36572-.23926.1377-2.25879.3125-6.07666-2.20752-4.55566-3.0083-9.23975-8.32128-12.85156-14.57666-3.61182-6.25586-5.87061-12.96923-6.19776-18.41845C278.6001,299.37109,279.75977,297.708,280,297.56934ZM256,304c1.99121,0,8,8.51172,8,24s-6.00879,24-8,24-8-8.51172-8-24S254.00879,304,256,304Zm-23.99951-6.43066c.23974.13867,1.39941,1.80175,1.12549,6.36621-.32715,5.44922-2.58594,12.16259-6.19776,18.41845-3.61181,6.25538-8.2959,11.56836-12.85156,14.57666-3.81787,2.51954-5.835,2.34522-6.07715,2.20752-.23974-.13867-1.39941-1.80175-1.12549-6.36572.32715-5.44971,2.58594-12.1626,6.19776-18.41846s8.2959-11.56884,12.85156-14.57714c2.90625-1.91846,4.771-2.2754,5.60107-2.2754A1.15949,1.15949,0,0,1,232.00049,297.56934ZM232,214.43066c-.24023.13916-2.25879.313-6.07666-2.20752-4.55566-3.0083-9.23975-8.32128-12.85156-14.57714s-5.87061-12.96875-6.19776-18.41846c-.27392-4.564.88575-6.227,1.126-6.36572a1.14585,1.14585,0,0,1,.47559-.06787c.82959,0,2.69482.35693,5.60107,2.27539,4.55566,3.0083,9.23975,8.32128,12.85156,14.57666,3.61182,6.25586,5.87061,12.96923,6.19776,18.41845C233.3999,212.62891,232.24023,214.292,232,214.43066ZM256,208c-1.99121,0-8-8.51172-8-24s6.00879-24,8-24,8,8.51172,8,24S257.99121,208,256,208Zm23.99951,6.43066c-.23974-.13867-1.39941-1.80175-1.12549-6.36621.32715-5.44922,2.58594-12.16259,6.19776-18.41845,3.61181-6.25538,8.2959-11.56836,12.85156-14.57666,2.90625-1.91846,4.771-2.27539,5.60107-2.27539a1.15956,1.15956,0,0,1,.47608.06787c.23974.13867,1.39941,1.80175,1.12549,6.36572-.32715,5.44971-2.58594,12.1626-6.19776,18.41846s-8.2959,11.56884-12.85156,14.57714C282.25928,214.74316,280.24023,214.56689,279.99951,214.43066ZM328,264c-15.48828,0-24-6.00879-24-8s8.51172-8,24-8,24,6.00879,24,8S343.48828,264,328,264Z"/></svg>